<?xml version="1.0" encoding="UTF-8" standalone="no"?>
<!-- Created with Inkscape (http://www.inkscape.org/) -->

<svg
   xmlns:dc="http://purl.org/dc/elements/1.1/"
   xmlns:cc="http://creativecommons.org/ns#"
   xmlns:rdf="http://www.w3.org/1999/02/22-rdf-syntax-ns#"
   xmlns:svg="http://www.w3.org/2000/svg"
   xmlns="http://www.w3.org/2000/svg"
   xmlns:sodipodi="http://sodipodi.sourceforge.net/DTD/sodipodi-0.dtd"
   xmlns:inkscape="http://www.inkscape.org/namespaces/inkscape"
   width="1280"
   height="640"
   viewBox="0 0 338.66666 169.33333"
   version="1.1"
   id="svg933"
   inkscape:export-filename="/home/gianluparri03/Desktop/50883152-complex-math-formulas-on-whiteboard-mathematics-and-science-with-economics-concept-real-equations-sy.jpg.png"
   inkscape:export-xdpi="96"
   inkscape:export-ydpi="96"
   inkscape:version="0.92.4 (33fec40, 2019-01-16)"
   sodipodi:docname="banner.svg">
  <defs
     id="defs927" />
  <sodipodi:namedview
     id="base"
     pagecolor="#ffffff"
     bordercolor="#666666"
     borderopacity="1.0"
     inkscape:pageopacity="0.0"
     inkscape:pageshadow="2"
     inkscape:zoom="0.49497475"
     inkscape:cx="717.55353"
     inkscape:cy="396.45842"
     inkscape:document-units="mm"
     inkscape:current-layer="layer1"
     showgrid="false"
     units="px"
     showguides="true"
     inkscape:lockguides="true"
     inkscape:window-width="1366"
     inkscape:window-height="713"
     inkscape:window-x="0"
     inkscape:window-y="27"
     inkscape:window-maximized="1" />
  <metadata
     id="metadata930">
    <rdf:RDF>
      <cc:Work
         rdf:about="">
        <dc:format>image/svg+xml</dc:format>
        <dc:type
           rdf:resource="http://purl.org/dc/dcmitype/StillImage" />
        <dc:title></dc:title>
      </cc:Work>
    </rdf:RDF>
  </metadata>
  <g
     inkscape:label="Layer 1"
     inkscape:groupmode="layer"
     id="layer1"
     transform="translate(0,-127.66671)"
     style="display:inline">
    <g
       aria-label="Ru2fin√-1"
       style="font-style:normal;font-weight:normal;font-size:9.74981117px;line-height:1.25;font-family:sans-serif;text-align:center;letter-spacing:0px;word-spacing:0px;text-anchor:middle;fill:#000000;fill-opacity:1;stroke:none;stroke-width:0.26115564"
       id="text1480">
      <path
         d="m 2.9846631,241.23468 c 4.61375,0.0871 4.61375,0.0871 5.1360614,0.0871 4.5266985,0 12.3613675,-0.1741 14.9729245,-0.34821 l 6.44184,-3.30797 c -3.22092,-0.0871 -4.004387,-0.0871 -11.490849,-0.26115 9.836863,-9.83687 10.359174,-10.62033 13.144835,-21.67592 0.08705,-0.0871 0.174103,-0.0871 0.174103,-0.0871 0.957571,-0.0871 1.479883,0.69642 2.002194,2.87272 3.307972,14.53766 6.180684,22.80759 9.749811,28.11776 3.743231,5.57132 8.879293,8.26993 15.756392,8.26993 4.874906,0 7.83467,-1.04463 12.709575,-4.61375 l -4.265542,-5.31017 c -2.78566,5.13606 -5.223113,7.13826 -8.618137,7.13826 -4.091439,0 -8.008774,-4.3526 -11.577901,-12.97074 -2.263349,-5.39721 -4.961958,-13.49304 -8.531085,-24.80978 4.961958,-1.56694 6.964151,-2.52451 9.66276,-4.26555 4.091438,-2.78566 6.441839,-6.79004 6.441839,-10.96853 0,-5.39722 -4.352594,-8.35699 -12.274316,-8.35699 -1.044622,0 -3.22092,0.0871 -5.049009,0.17411 l 0.696415,-2.78566 -7.921722,3.74323 c -14.27651,2.43745 -21.8500238,9.0534 -21.8500238,19.23847 0,2.26335 0.2611557,3.74323 1.2187265,6.96415 l 7.3123583,-3.74323 c -0.696415,-2.95977 -0.957571,-4.43965 -0.957571,-6.44184 0,-4.17849 1.305779,-7.48647 4.004387,-10.01097 2.437453,-2.1763 4.874906,-3.13387 10.446227,-3.83028 l -0.783467,3.13386 c -0.348208,1.39283 -0.870519,3.39503 -1.479882,6.09364 l -4.352595,17.23627 C 20.046833,235.2281 17.696432,237.49145 6.3796867,237.4044 Z M 36.760795,193.35614 h 2.698609 c 5.397217,0 7.660566,2.00219 7.660566,6.79005 0,4.35259 -2.350401,8.53108 -6.00658,10.79443 -2.611557,1.56694 -4.700802,2.1763 -9.401604,2.78566 z"
         style="fill:#1976d2;fill-opacity:1;stroke-width:0.26115564"
         id="path821" />
      <path
         d="m 59.012074,215.20617 c 3.65618,-1.82809 5.310166,-2.52451 6.354788,-2.52451 0.696415,0 1.218727,0.69642 1.218727,1.65399 0,1.13167 -0.870519,4.8749 -2.437453,10.79443 -2.176297,8.09583 -2.698609,10.53328 -2.698609,13.05778 0,2.43746 1.044623,4.26555 2.437453,4.26555 1.305778,0 2.872712,-0.78347 7.225307,-3.65618 l 8.966344,-5.83248 c -0.696415,2.78566 -1.218726,5.91953 -1.218726,7.48646 0,1.13168 0.696415,2.0022 1.566934,2.0022 1.741038,0 10.010967,-4.87491 15.930495,-9.31456 l 0.609363,-2.61155 c -6.790047,4.00438 -9.053396,5.22311 -10.010967,5.22311 -0.609363,0 -0.95757,-0.69641 -0.95757,-2.08924 0,-4.43965 3.220919,-17.41038 6.964151,-28.46597 -1.131675,0.60936 -1.915142,1.04462 -2.263349,1.21872 -1.044623,0.52232 -2.089246,1.04463 -3.22092,1.56694 -0.261156,0.0871 -0.783467,0.34821 -1.741038,0.87052 -0.522311,2.00219 -2.263349,8.96634 -5.136061,20.9795 -6.702996,4.61375 -9.749812,6.35479 -10.794434,6.35479 -0.957571,0 -1.653986,-1.21873 -1.653986,-2.87271 0,-2.0022 0.696415,-5.48427 2.176297,-11.05559 0.957571,-3.48208 1.566934,-5.91953 1.828089,-7.13826 0.783467,-3.22092 1.392831,-5.48427 1.566934,-6.09363 0.261156,-0.95757 0.43526,-1.74104 0.43526,-2.3504 0,-0.69641 -0.43526,-1.13167 -1.044623,-1.13167 -0.870519,0 -7.225306,3.39502 -13.493042,7.31235 z"
         style="font-style:normal;font-variant:normal;font-weight:normal;font-stretch:normal;font-size:87.05188751px;font-family:'URW Chancery L';-inkscape-font-specification:'URW Chancery L';text-align:center;text-anchor:middle;stroke-width:0.26115564"
         id="path823" />
      <path
         d="m 96.438947,242.80161 c 3.743233,-4.09144 4.787853,-4.78785 6.964153,-4.78785 0.87052,0 2.00219,0.1741 3.39502,0.52231 6.44184,1.47988 14.97293,3.04682 16.36576,3.04682 0.69641,0 1.13167,-0.0871 2.00219,-0.43526 l 7.66057,-11.49085 -0.69642,-2.00219 c -5.57132,7.0512 -6.18068,7.66056 -8.53108,7.66056 -0.43526,0 -1.04463,-0.087 -1.82809,-0.26115 -6.00658,-1.04463 -11.2297,-1.82809 -15.58229,-2.52451 l 10.70738,-9.92391 7.74762,-7.22531 4.35259,-4.09144 c 2.52451,-3.83028 3.56913,-6.79005 3.56913,-10.62033 0,-5.57132 -3.56913,-9.14045 -8.96634,-9.14045 -4.43965,0 -9.0534,1.65399 -12.62253,4.61375 -3.13387,2.43745 -4.78785,5.57132 -4.78785,9.14045 0,0.69642 0.0871,1.13167 0.26115,2.08925 l 6.18069,0.69641 c -0.78347,-2.3504 -1.04462,-3.56913 -1.04462,-5.13606 0,-4.78785 2.87271,-7.92172 7.2253,-7.92172 4.09144,0 7.0512,3.56912 7.0512,8.53108 0,2.69861 -0.87051,5.74543 -2.26334,7.92172 -1.82809,2.95977 -4.00439,5.31017 -10.70739,11.57791 -11.22969,10.53327 -12.53547,11.83905 -16.801011,17.23627 z"
         style="fill:#1972d2;fill-opacity:1;stroke-width:0.26115564"
         id="path825" />
      <path
         d="m 160.72269,214.16154 c 0.26115,0 0.78346,0 1.74103,0.0871 l 3.56913,-2.78566 c -4.5267,-0.0871 -4.5267,-0.0871 -5.48427,-0.0871 -1.04462,0 -1.04462,0 -5.13606,0.0871 5.65837,-22.11118 6.96415,-24.80978 12.10021,-24.80978 1.47989,0 2.61156,0.1741 5.83248,0.69641 l 4.00439,-4.7008 c -1.74104,-0.43526 -2.43746,-0.52231 -4.17849,-0.52231 -5.22312,0 -8.8793,1.91514 -14.71177,7.57351 -4.87491,4.7008 -6.00658,7.31236 -9.40161,21.76297 -0.87051,-0.0871 -1.30577,-0.0871 -1.74103,-0.0871 l -4.26555,0.17411 c -0.1741,0 -0.60936,0 -1.30577,-0.0871 -0.52232,0.34821 -1.04463,0.69642 -1.21873,0.78347 l -1.91514,1.04462 c -0.34821,0.17411 -1.04462,0.52232 -1.74104,0.95757 h 2.1763 c 0,0 6.09363,0.0871 6.09363,0.0871 0.52231,0 1.47988,0 3.22092,-0.0871 -1.39283,5.31017 -1.91514,7.66057 -3.56913,15.23408 -5.22311,23.93927 -7.2253,27.85661 -14.62472,27.85661 -1.21872,0 -2.26334,-0.087 -4.61375,-0.43526 -0.87051,1.30578 -1.13167,1.74104 -1.74103,2.5245 -0.69642,0.95757 -1.47989,1.91515 -2.1763,2.95977 1.91514,0.26115 2.87271,0.34821 4.26554,0.34821 2.87271,0 5.13606,-0.43526 6.52889,-1.21873 2.52451,-1.39283 6.96415,-5.65837 9.31456,-8.70519 2.6986,-3.65618 5.83247,-11.14264 7.83467,-19.06436 3.74323,-14.18946 4.7008,-17.75859 5.13606,-19.49963 0.78346,0.0871 1.13167,0.0871 1.47988,0.0871 z"
         style="fill:#1972d2;fill-opacity:1;stroke-width:0.26115564"
         id="path827" />
      <path
         d="m 179.20489,198.3181 c 2.5245,-2.26335 2.69861,-2.43745 5.65837,-4.7008 -0.52231,-1.04463 -0.95757,-1.74104 -1.13167,-2.0022 -0.52232,-1.04462 -0.60937,-1.13167 -1.30578,-2.78566 -0.17411,-0.3482 -0.34821,-0.69641 -0.52231,-1.13167 -0.43526,0.34821 -0.95757,0.69641 -1.21873,0.95757 -0.34821,0.34821 -1.04462,0.87052 -1.91514,1.56693 -0.43526,0.34821 -1.04462,0.78347 -1.82809,1.30578 -0.34821,0.26116 -0.69642,0.52231 -1.04462,0.69642 0.60936,1.91514 1.39283,3.30797 3.30797,6.09363 z m 6.00658,32.90561 c -8.26993,4.43965 -8.44404,4.5267 -9.57571,4.5267 -0.95757,0 -1.56693,-0.95757 -1.56693,-2.43745 0,-0.87052 0.26115,-2.52451 0.78346,-4.43965 4.43965,-18.28089 5.31017,-21.76297 5.31017,-22.45939 0,-0.52231 -0.43526,-0.87051 -1.04462,-0.87051 -1.47989,0 -6.61595,2.87271 -13.7542,7.66056 l -0.17411,2.43745 c 5.13607,-2.78566 5.57132,-2.95976 6.35479,-2.95976 0.69642,0 1.04462,0.52231 1.04462,1.56693 0,1.13168 -0.26115,2.35041 -1.56693,7.31236 -4.09144,15.23408 -4.09144,15.23408 -4.09144,17.41038 0,2.08925 0.87052,3.48208 2.08925,3.48208 1.47988,0 3.83028,-1.13168 8.44403,-4.09144 1.65399,-1.04463 3.30797,-2.08925 4.96196,-3.22092 0.78346,-0.43526 1.56693,-0.95757 2.43745,-1.47988 z"
         style="font-style:normal;font-variant:normal;font-weight:normal;font-stretch:normal;font-size:87.05188751px;font-family:'URW Chancery L';-inkscape-font-specification:'URW Chancery L';text-align:center;text-anchor:middle;stroke-width:0.26115564"
         id="path829" />
      <path
         d="m 193.3277,239.66775 5.13606,-20.4572 c 10.88148,-6.8771 11.14264,-6.96415 12.36137,-6.96415 0.60936,0 0.95757,0.43526 0.95757,1.13168 0,1.30577 -0.69642,4.61375 -3.22092,14.53766 -1.91514,7.74762 -2.26335,9.2275 -2.26335,10.88149 0,1.21872 0.34821,2.3504 1.30578,3.91733 4.00438,-1.82809 10.01096,-5.57132 16.1046,-10.09802 l 0.60936,-2.43745 c -8.70519,4.96196 -9.0534,5.13606 -9.92392,5.13606 -0.87051,0 -1.39283,-0.95757 -1.39283,-2.3504 0,-1.82809 0.60937,-4.7008 2.26335,-10.70738 4.09144,-14.62472 4.09144,-14.62472 4.09144,-15.23408 0,-0.95757 -0.60936,-1.47988 -1.74104,-1.47988 -1.30577,0 -3.22092,0.78346 -6.35478,2.78566 l -11.92611,7.39941 c 0.78346,-2.87272 2.08924,-8.35698 2.08924,-9.0534 0,-0.60936 -0.52231,-1.13167 -1.13167,-1.13167 -0.95757,0 -7.22531,3.22092 -13.66715,7.0512 l -0.52231,2.26335 c 5.57132,-2.52451 5.91953,-2.61156 6.703,-2.61156 0.60936,0 1.04462,0.52231 1.04462,1.21873 0,1.82809 -1.65399,9.05339 -3.83028,16.97512 l -2.0022,7.0512 c -0.1741,0.60936 -0.60936,2.26335 -1.21872,4.7008 z"
         style="font-style:normal;font-variant:normal;font-weight:normal;font-stretch:normal;font-size:87.05188751px;font-family:'URW Chancery L';-inkscape-font-specification:'URW Chancery L';text-align:center;text-anchor:middle;stroke-width:0.26115564"
         id="path831" />
      <path
         d="m 250.7765,244.36855 13.2315,-79.04251 h 63.648 l 0.346,-3.047 -63.99362,-4.2e-4 -3.22092,4.2e-4 -11.05559,68.07415 -16.97511,-34.29844 -12.70958,6.18068 1.39283,3.04682 8.26993,-4.09144 z"
         style="fill:#1972d2;fill-opacity:1;stroke-width:0.26115564"
         id="path833"
         inkscape:connector-curvature="0"
         sodipodi:nodetypes="cccccccccccc" />
      <path
         d="m 277.74761,226.26176 c 0,0 7.66057,-0.17411 7.66057,-0.17411 0.78347,0 1.47988,0 3.74323,0.17411 1.21873,-2.0022 2.52451,-3.83029 3.91734,-5.48427 0,0 -7.92172,-0.0871 -7.92172,-0.0871 -1.21873,0 -2.0022,0 -4.00439,0.0871 -1.21873,1.21872 -2.69861,3.13386 -4.17849,5.48427 z"
         style="fill:#1972d2;fill-opacity:1;stroke-width:0.26115564"
         id="path835" />
      <path
         d="m 298.40476,241.32173 h 5.48427 c 0,0 9.48865,-0.0871 9.48865,-0.0871 0,0 10.01097,0.0871 10.01097,0.0871 h 3.56913 l 2.08924,-2.3504 c -2.61155,-0.0871 -7.31235,-0.60936 -8.96634,-0.95757 -1.39283,-0.34821 -2.26335,-1.30578 -2.26335,-2.61156 0,-0.95757 0.1741,-2.26335 0.60936,-3.65618 0.26116,-1.04462 1.13168,-5.04901 2.43746,-11.14264 3.74323,-16.4528 5.74542,-24.72273 7.13825,-29.94585 l -2.95976,1.56694 c -6.00658,3.22092 -6.18069,3.30797 -8.96635,4.61375 -1.65398,0.78346 -4.5267,2.00219 -8.53108,3.83028 l 2.61155,1.30578 c 2.08925,-0.69642 3.13387,-1.13168 4.70081,-1.74104 l 2.61155,-1.04462 c 0.34821,-0.17411 1.13168,-0.43526 2.43746,-0.87052 l -8.26993,35.60422 c -0.87052,3.65618 -0.95757,3.83028 -3.74323,4.17849 -3.65618,0.43526 -6.00659,0.69642 -6.96416,0.87052 z"
         style="fill:#1972d2;fill-opacity:1;stroke-width:0.26115564"
         id="path837" />
    </g>
    <flowRoot
       xml:space="preserve"
       id="flowRoot1482"
       style="font-style:normal;font-weight:normal;font-size:37.33333206px;line-height:1.25;font-family:sans-serif;letter-spacing:0px;word-spacing:0px;fill:#000000;fill-opacity:1;stroke:none"
       transform="matrix(0.26458333,0,0,0.26458333,0,127.66671)"><flowRegion
         id="flowRegion1484"><rect
           id="rect1486"
           width="188.57143"
           height="182.85715"
           x="382.85715"
           y="414.28571" /></flowRegion><flowPara
         id="flowPara1488" /></flowRoot>  </g>
</svg>
